<!-- Generated by IcoMoon.io -->
<svg version="1.1" xmlns="http://www.w3.org/2000/svg" width="1024" height="1024" viewBox="0 0 1024 1024">
<title></title>
<g id="icomoon-ignore">
</g>
<path d="M153.5 153.5h119.5v119.5h-119.5v-119.5zM751 153.5h119.5v119.5h-119.5v-119.5zM352.5 273l119.5-119.5h80l119.5 119.5v199h-119.5v-199h-80v199h-119.5v-199zM153.5 352.5h119.5v199.5h79.5l119.5 119.5v79.5l-119.5 119.5h-79.5l-119.5-119.5h199v-79.5h-79.5l-119.5-119.5v-199.5zM870.5 352.5h-119.5v199.5h-79.5l-119.5 119.5v79.5l119.5 119.5h79.5l119.5-119.5h-199v-79.5h79.5l119.5-119.5v-199.5z"></path>
</svg>
