<!-- Generated by IcoMoon.io -->
<svg version="1.1" xmlns="http://www.w3.org/2000/svg" width="1024" height="1024" viewBox="0 0 1024 1024">
<title></title>
<g id="icomoon-ignore">
</g>
<path d="M352.5 153.5h119.5v119.5h-119.5v-119.5zM552 153.5h119.5v119.5h-119.5v-119.5zM153.5 552h119.5v318.5l-119.5-119.5v-199zM751 552h119.5v199l-119.5 119.5v-318.5zM273 352.5h79.5l119.5 119.5v279h80v-279l119.5-119.5h79.5v-199l119.5 119.5v79.5l-119.5 119.5h-79.5v279l-119.5 119.5h-80l-119.5-119.5v-279h-79.5l-119.5-119.5v-79.5l119.5-119.5v199z"></path>
</svg>
