<!-- Generated by IcoMoon.io -->
<svg version="1.1" xmlns="http://www.w3.org/2000/svg" width="1024" height="1024" viewBox="0 0 1024 1024">
<title></title>
<g id="icomoon-ignore">
</g>
<path d="M153.5 751h119.5v119.5h-119.5v-119.5zM751 751h119.5v119.5h-119.5v-119.5zM153.5 472v-199l119.5-119.5h79.5l119.5 119.5v79.5h80v-79.5l119.5-119.5h79.5l119.5 119.5v199h-119.5v-199h-79.5v79.5l-119.5 119.5h-80l-119.5-119.5v-79.5h-79.5v199h-119.5zM153.5 552h199l119.5 119.5v79.5h80v-79.5l119.5-119.5h199v119.5h-199v79.5l-119.5 119.5h-80l-119.5-119.5v-79.5h-199v-119.5z"></path>
</svg>
