<!-- Generated by IcoMoon.io -->
<svg version="1.1" xmlns="http://www.w3.org/2000/svg" width="1024" height="1024" viewBox="0 0 1024 1024">
<title></title>
<g id="icomoon-ignore">
</g>
<path d="M153.5 352.5h119.5v319h-119.5v-319zM751 352.5h119.5v319h-119.5v-319zM153.5 273l119.5-119.5h79.5l119.5 119.5v79.5h80v-79.5l119.5-119.5h79.5l119.5 119.5h-199v79.5l-119.5 119.5h-80l-119.5-119.5v-79.5h-199zM352.5 751v-79.5l119.5-119.5h80l119.5 119.5v79.5h199l-119.5 119.5h-79.5l-119.5-119.5v-79.5h-80v79.5l-119.5 119.5h-79.5l-119.5-119.5h199z"></path>
</svg>
